<?xml version="1.0" encoding="UTF-8" standalone="no"?>
<svg
   height="24"
   viewBox="0 0 24 24"
   width="24"
   version="1.1"
   id="svg870"
   xmlns="http://www.w3.org/2000/svg">
  <defs
     id="defs874" />
  <path
     d="M0 0h24v24H0z"
     fill="none"
     id="path866" />
  <path
     d="M20 21c-1.39 0-2.78-.47-4-1.32-2.44 1.71-5.56 1.71-8 0C6.78 20.53 5.39 21 4 21H2v2h2c1.38 0 2.74-.35 4-.99 2.52 1.29 5.48 1.29 8 0 1.26.65 2.62.99 4 .99h2v-2h-2zM3.95 19H4c1.6 0 3.02-.88 4-2 .98 1.12 2.4 2 4 2s3.02-.88 4-2c.98 1.12 2.4 2 4 2h.05l1.89-6.68c.08-.26.06-.54-.06-.78s-.34-.42-.6-.5L20 10.62V6c0-1.1-.9-2-2-2h-3V1H9v3H6c-1.1 0-2 .9-2 2v4.62l-1.29.42c-.26.08-.48.26-.6.5s-.15.52-.06.78L3.95 19zM6 6h12v3.97L12 8 6 9.97V6z"
     id="path868" />
  <path
     style="fill:#4ad0ff;fill-opacity:1;fill-rule:evenodd;stroke:#1976d2;stroke-width:0.696367"
     d="M 3.9534192,18.942085 C 3.9458545,18.920849 3.5084529,17.387535 2.9814156,15.53472 1.9494608,11.906853 1.9642148,11.970482 2.082668,11.658738 2.2317588,11.266363 2.3818329,11.168162 3.2846803,10.872207 l 0.7116426,-0.233278 0.01116,-2.4623217 C 4.0198632,5.445208 4.0102314,5.5769964 4.2303336,5.1274131 4.4159694,4.748231 4.748231,4.4159694 5.1274131,4.2303336 5.5584173,4.0193273 5.5395413,4.0212113 7.3590734,4.0075846 L 9.003861,3.9952665 V 2.4995637 1.003861 H 12 14.996139 v 1.4957027 1.4957028 l 1.644788,0.012318 c 1.820058,0.013631 1.801458,0.011771 2.23166,0.2231169 0.507799,0.2494671 0.890876,0.7204926 1.055851,1.298256 0.04751,0.1663994 0.05406,0.4367228 0.06408,2.6466916 l 0.01116,2.461363 0.705736,0.235236 c 0.745258,0.24841 0.927713,0.340118 1.061187,0.533395 0.141911,0.205491 0.186232,0.34721 0.185883,0.594357 -3.09e-4,0.210436 -0.08809,0.540124 -0.958222,3.598456 l -0.957895,3.366795 -0.305895,-0.0051 c -1.137001,-0.01903 -2.473522,-0.68046 -3.485081,-1.724718 l -0.244823,-0.252737 -0.336016,0.334422 C 14.742457,18.238819 13.654128,18.802233 12.509658,18.95244 12.1457,19.00021 11.48196,18.97041 11.108906,18.88955 10.06751,18.663807 9.0793303,18.092184 8.2493859,17.235412 L 8.0045634,16.982675 7.668547,17.317097 C 6.9272772,18.054849 6.028076,18.594625 5.1551308,18.82586 4.6463888,18.960621 3.9828819,19.024793 3.9534192,18.942085 Z M 9.0429421,8.9900627 12.000942,8.0189362 14.958,8.9899762 c 1.626382,0.5340723 2.981382,0.9790107 3.011112,0.9887524 0.05111,0.016747 0.05405,-0.091837 0.05405,-1.9920911 V 5.976834 H 12 5.976834 v 2.0098035 c 0,1.9002212 0.00295,2.0088423 0.054054,1.9921776 0.02973,-0.00969 1.385154,-0.4546329 3.0120541,-0.9887524 z"
     id="path1607" />
  <path
     style="fill:#4ad0ff;fill-opacity:1;fill-rule:evenodd;stroke:#1976d2;stroke-width:0.696367"
     d="m 2.023166,22.01457 v -0.989162 l 1.3050193,-0.01437 c 1.4165905,-0.01561 1.6190592,-0.03406 2.3002867,-0.20971 0.6766168,-0.174459 1.5173068,-0.54276 2.0935357,-0.917166 L 8,19.703531 8.2779923,19.884108 c 0.8059904,0.523553 1.8848407,0.911808 2.9034747,1.044899 0.35786,0.04676 1.279206,0.04676 1.637066,0 1.018608,-0.133087 2.097964,-0.521511 2.903475,-1.044861 L 16,19.703531 l 0.277992,0.180588 c 0.576654,0.374604 1.416981,0.742761 2.093536,0.917204 0.681228,0.175647 0.883696,0.194105 2.300287,0.20971 l 1.305019,0.01437 v 0.989135 0.989134 l -1.335907,-0.01647 c -0.970029,-0.01196 -1.428411,-0.0297 -1.67366,-0.06476 -0.967764,-0.138377 -1.79141,-0.380173 -2.622053,-0.769749 -0.292861,-0.137353 -0.344576,-0.15259 -0.416989,-0.122865 -0.04547,0.01866 -0.235561,0.103156 -0.422433,0.187761 -0.67391,0.305109 -1.454609,0.528624 -2.301159,0.658824 -0.371855,0.0572 -0.576326,0.06889 -1.204633,0.06889 -0.628307,0 -0.832778,-0.01169 -1.204633,-0.06888 C 9.947929,22.746083 9.1589341,22.520451 8.4948451,22.21853 8.3076225,22.13341 8.1174091,22.048562 8.0721489,22.029976 c -0.071913,-0.02953 -0.1245023,-0.01406 -0.4169884,0.122701 -0.8192584,0.383059 -1.6719333,0.631408 -2.6358555,0.767716 -0.262763,0.03716 -0.6988828,0.05454 -1.6756757,0.06679 l -1.3204633,0.01656 z"
     id="path1794" />
  <path
     style="fill:#4ad0ff;fill-opacity:1;fill-rule:evenodd;stroke:#1976d2;stroke-width:0.696367"
     d="m 2.3938224,22.017454 v -0.617669 l 0.6536289,-0.02036 c 0.3594959,-0.01119 0.8157691,-0.02036 1.0139405,-0.02036 0.759477,0 1.4097619,-0.109095 2.138842,-0.358824 0.5115642,-0.175225 1.0482187,-0.417396 1.4693566,-0.663063 l 0.3284334,-0.191589 0.093652,0.05615 c 0.9044099,0.542265 1.7978588,0.877149 2.8131262,1.054419 0.438197,0.07651 1.752199,0.07651 2.190396,0 1.02005,-0.178105 1.904455,-0.509599 2.813126,-1.054419 l 0.09365,-0.05615 0.328434,0.191589 c 0.641191,0.374034 1.511895,0.719097 2.222931,0.880955 0.422716,0.09623 0.959201,0.136054 2.164806,0.160711 l 0.888031,0.01816 v 0.619108 0.619108 l -1.181468,-0.01945 c -1.213291,-0.01998 -1.492123,-0.04366 -2.108108,-0.179085 -0.626798,-0.137797 -1.120941,-0.304433 -1.812436,-0.611192 -0.481435,-0.213573 -0.524178,-0.212052 -1.101935,0.03921 -0.731033,0.317917 -1.354059,0.500676 -2.19054,0.642577 -0.334628,0.05677 -0.515014,0.0667 -1.211691,0.0667 -0.700549,0 -0.876411,-0.0098 -1.220077,-0.06786 C 9.9509955,22.366035 9.334312,22.1834 8.5668541,21.850703 8.0213779,21.614237 7.9780349,21.61355 7.4794768,21.833478 6.8260507,22.121721 6.339482,22.284488 5.7209489,22.421737 5.0397636,22.57289 4.7861451,22.595675 3.5598456,22.615896 l -1.1660232,0.01923 z"
     id="path1833" />
  <path
     style="fill:#4ad0ff;fill-opacity:1;fill-rule:evenodd;stroke:#1976d2;stroke-width:0.696367"
     d="m 2.7644788,22.015036 v -0.249501 l 0.1930502,-0.01699 c 0.1061776,-0.0093 0.5474903,-0.02361 0.9806949,-0.03171 0.8394483,-0.0157 1.200891,-0.05498 1.7539019,-0.190625 0.630698,-0.154701 1.4532651,-0.479506 2.0139517,-0.795242 l 0.2925996,-0.16477 0.1828024,0.107137 c 0.6289171,0.368598 1.540312,0.704336 2.4285595,0.894627 0.372385,0.07978 0.42121,0.08275 1.374517,0.08363 1.07619,9.96e-4 1.13589,-0.0054 1.915058,-0.205713 0.6042,-0.155317 1.439392,-0.491509 1.918245,-0.772156 L 16,20.566977 l 0.313117,0.173934 c 0.604952,0.336044 1.543395,0.694298 2.173369,0.829692 0.419196,0.09009 0.820029,0.124711 1.837991,0.158739 0.49258,0.01647 0.899075,0.03024 0.903322,0.03061 0.0042,3.69e-4 0.0077,0.114105 0.0077,0.252748 v 0.252078 l -0.996139,-0.02045 c -0.610122,-0.01253 -1.121057,-0.03841 -1.318497,-0.0668 -0.674971,-0.09704 -1.328085,-0.289084 -2.139812,-0.629198 -0.74249,-0.311103 -0.80431,-0.310634 -1.599606,0.01212 -1.332424,0.540732 -2.386722,0.721528 -3.72973,0.639593 -0.8861,-0.05406 -1.5974933,-0.22523 -2.5878392,-0.622663 C 8.0125111,21.235721 7.9670245,21.234916 7.2189053,21.54826 6.6304426,21.794737 6.3364191,21.894046 5.8069278,22.025168 5.1638386,22.18442 4.7827561,22.224587 3.7142637,22.24574 l -0.9498069,0.0188 z"
     id="path1872" />
</svg>
