<?xml version="1.0" standalone="no"?>
<svg xmlns="http://www.w3.org/2000/svg" viewBox="0 0 153.458 36" width="153.458" height="36"><g fill="#4ad0ff" color="#4ad0ff" transform="translate(125.458, 4) scale(0.5833334)"><svg width="48.0" height="48.0" x="0.0" y="0.0" viewBox="0 0 48 48"><path fill="currentColor" fill-rule="evenodd" d="M28 24a4 4 0 1 1-8 0 4 4 0 0 1 8 0M26 0c12.318 1.024 22 11.367 22 24 0 12.505-9.489 22.772-21.631 23.967l-.37.033v-4.018C36.11 42.974 44 34.412 44 24c0-10.296-7.71-18.782-17.655-19.948L26 4.015V0zm-4 0v4.015C11.894 5.023 4 13.586 4 24c0 10.294 7.716 18.78 17.657 19.945l.343.037V48C9.684 46.979 0 36.631 0 24 0 11.367 9.684 1.024 22 0zm-9.82 26c.953 5.672 5.874 10 11.82 10 5.946 0 10.867-4.328 11.82-10h4.041c-.984 7.89-7.7 14-15.861 14-8.156 0-14.876-6.11-15.861-14zM24 16a8 8 0 0 1 8 8 8 8 0 1 1-8-8zm0-8c8.047 0 14.69 5.941 15.816 13.672l.045.328h-4.04c-.954-5.674-5.875-10-11.82-10-5.844 0-10.698 4.178-11.768 9.708L12.18 22H8.14C9.125 14.11 15.844 8 24 8z"></path></svg></g><path fill="#ffffff" fill-rule="nonzero" d="M0 21.32L0 1.30L3.04 1.30Q3.61 1.30 4.29 1.35Q4.98 1.41 5.67 1.60Q6.35 1.79 6.99 2.19Q7.63 2.59 8.12 3.28Q8.61 3.96 8.91 4.99Q9.21 6.02 9.21 7.50L9.21 7.50L9.21 8.20Q9.21 9.81 8.94 10.95Q8.66 12.09 8.20 12.87Q7.75 13.65 7.14 14.12Q6.54 14.59 5.89 14.83Q5.24 15.07 4.58 15.15Q3.91 15.22 3.33 15.22L3.33 15.22L3.04 15.22L3.04 21.32L0 21.32ZM3.04 13.00L3.19 13.00Q4.01 13.00 4.57 12.76Q5.13 12.52 5.47 12.01Q5.80 11.50 5.95 10.69Q6.09 9.89 6.09 8.77L6.09 8.77L6.09 6.96Q6.09 6.07 5.96 5.42Q5.84 4.77 5.50 4.35Q5.17 3.93 4.61 3.72Q4.04 3.52 3.19 3.52L3.19 3.52L3.04 3.52L3.04 13.00ZM11.32 21.32L11.32 0L14.29 0L14.29 3.80L14.13 6.56Q14.46 6.11 14.84 5.81Q15.22 5.51 15.63 5.33Q16.03 5.14 16.45 5.07Q16.86 4.99 17.27 4.99L17.27 4.99Q18.69 4.99 19.46 5.98Q20.23 6.97 20.23 8.95L20.23 8.95L20.23 21.32L17.26 21.32L17.26 9.06Q17.26 7.99 16.93 7.58Q16.61 7.16 15.97 7.16L15.97 7.16Q15.53 7.16 15.08 7.46Q14.63 7.76 14.29 8.29L14.29 8.29L14.29 21.32L11.32 21.32ZM27.36 21.49L27.36 21.49Q26.85 21.49 26.31 21.41Q25.78 21.33 25.28 21.07Q24.79 20.81 24.35 20.33Q23.91 19.85 23.58 19.07Q23.25 18.28 23.06 17.13Q22.88 15.98 22.88 14.39L22.88 14.39L22.88 11.86Q22.88 10.29 23.07 9.17Q23.26 8.05 23.60 7.29Q23.93 6.53 24.38 6.08Q24.82 5.63 25.32 5.38Q25.82 5.14 26.34 5.07Q26.87 4.99 27.38 4.99L27.38 4.99Q27.86 4.99 28.37 5.06Q28.89 5.13 29.38 5.36Q29.87 5.59 30.31 6.04Q30.75 6.49 31.08 7.25Q31.42 8.02 31.61 9.15Q31.80 10.28 31.80 11.86L31.80 11.86L31.80 14.39Q31.80 15.96 31.61 17.10Q31.41 18.23 31.07 19.02Q30.73 19.80 30.28 20.29Q29.84 20.78 29.34 21.05Q28.85 21.32 28.34 21.40Q27.83 21.49 27.36 21.49ZM27.39 19.21L27.39 19.21Q27.79 19.21 28.06 19.00Q28.34 18.80 28.51 18.33Q28.68 17.86 28.75 17.09Q28.83 16.32 28.83 15.19L28.83 15.19L28.83 11.21Q28.83 10.08 28.75 9.30Q28.68 8.53 28.51 8.06Q28.34 7.58 28.06 7.37Q27.79 7.16 27.39 7.16L27.39 7.16Q26.96 7.16 26.68 7.37Q26.39 7.58 26.20 8.06Q26.02 8.53 25.93 9.30Q25.85 10.08 25.85 11.21L25.85 11.21L25.85 15.19Q25.85 16.32 25.93 17.09Q26.02 17.86 26.20 18.33Q26.39 18.80 26.68 19.00Q26.96 19.21 27.39 19.21ZM34.77 17.30L34.77 7.29L33.52 7.29L33.52 5.18L35.03 5.18L35.63 1.00L37.73 1.00L37.73 5.18L40.31 5.18L40.31 7.29L37.73 7.29L37.73 17.55Q37.73 18.08 37.83 18.40Q37.93 18.73 38.11 18.91Q38.29 19.09 38.52 19.15Q38.75 19.21 39.01 19.21L39.01 19.21Q39.45 19.21 39.78 19.10Q40.11 19.00 40.42 18.81L40.42 18.81L40.42 20.45Q40.16 20.77 39.86 20.96Q39.56 21.16 39.25 21.29Q38.93 21.41 38.60 21.46Q38.27 21.50 37.96 21.50L37.96 21.50Q37.34 21.50 36.76 21.34Q36.19 21.18 35.74 20.71Q35.30 20.25 35.03 19.43Q34.77 18.61 34.77 17.30L34.77 17.30ZM46.41 21.49L46.41 21.49Q45.89 21.49 45.36 21.41Q44.82 21.33 44.33 21.07Q43.83 20.81 43.39 20.33Q42.95 19.85 42.62 19.07Q42.29 18.28 42.11 17.13Q41.92 15.98 41.92 14.39L41.92 14.39L41.92 11.86Q41.92 10.29 42.11 9.17Q42.30 8.05 42.64 7.29Q42.97 6.53 43.42 6.08Q43.86 5.63 44.36 5.38Q44.86 5.14 45.39 5.07Q45.91 4.99 46.42 4.99L46.42 4.99Q46.90 4.99 47.41 5.06Q47.93 5.13 48.42 5.36Q48.91 5.59 49.35 6.04Q49.79 6.49 50.13 7.25Q50.46 8.02 50.65 9.15Q50.85 10.28 50.85 11.86L50.85 11.86L50.85 14.39Q50.85 15.96 50.65 17.10Q50.45 18.23 50.11 19.02Q49.77 19.80 49.32 20.29Q48.88 20.78 48.39 21.05Q47.89 21.32 47.38 21.40Q46.88 21.49 46.41 21.49ZM46.43 19.21L46.43 19.21Q46.83 19.21 47.10 19.00Q47.38 18.80 47.55 18.33Q47.72 17.86 47.79 17.09Q47.87 16.32 47.87 15.19L47.87 15.19L47.87 11.21Q47.87 10.08 47.79 9.30Q47.72 8.53 47.55 8.06Q47.38 7.58 47.10 7.37Q46.83 7.16 46.43 7.16L46.43 7.16Q46.01 7.16 45.72 7.37Q45.43 7.58 45.25 8.06Q45.06 8.53 44.98 9.30Q44.89 10.08 44.89 11.21L44.89 11.21L44.89 15.19Q44.89 16.32 44.98 17.09Q45.06 17.86 45.25 18.33Q45.43 18.80 45.72 19.00Q46.01 19.21 46.43 19.21ZM53.66 21.32L53.66 1.30L56.12 1.30L60.97 14.70L61.04 14.70Q61.01 14.23 60.95 13.65Q60.89 13.08 60.84 12.35Q60.80 11.61 60.76 10.69Q60.73 9.76 60.73 8.60L60.73 8.60L60.73 1.30L63.45 1.30L63.45 21.32L60.96 21.32L56.13 8.27L56.04 8.27Q56.07 8.80 56.13 9.42Q56.19 10.03 56.24 10.86Q56.29 11.70 56.32 12.80Q56.36 13.91 56.36 15.43L56.36 15.43L56.36 21.32L53.66 21.32ZM68.91 21.49L68.91 21.49Q68.16 21.49 67.58 21.19Q67.00 20.89 66.60 20.38Q66.20 19.86 65.99 19.15Q65.79 18.45 65.79 17.61L65.79 17.61Q65.79 16.62 66.04 15.84Q66.28 15.07 66.76 14.45Q67.23 13.83 67.93 13.32Q68.64 12.81 69.56 12.35L69.56 12.35Q70.01 12.13 70.56 11.90Q71.12 11.67 71.55 11.51L71.55 11.51L71.55 9.38Q71.55 8.91 71.52 8.50Q71.48 8.10 71.35 7.80Q71.21 7.50 70.95 7.33Q70.68 7.16 70.21 7.16L70.21 7.16Q69.89 7.16 69.59 7.28Q69.29 7.39 69.06 7.68Q68.84 7.96 68.70 8.43Q68.57 8.89 68.57 9.59L68.57 9.59L68.57 10.29L66.30 10.29Q66.20 9.83 66.15 9.45Q66.09 9.07 66.09 8.70L66.09 8.70Q66.09 7.79 66.40 7.10Q66.71 6.41 67.27 5.94Q67.83 5.47 68.60 5.23Q69.38 4.99 70.30 4.99L70.30 4.99Q71.51 4.99 72.30 5.26Q73.10 5.52 73.58 6.05Q74.05 6.57 74.24 7.37Q74.44 8.17 74.44 9.23L74.44 9.23L74.44 21.32L72.23 21.32L72.02 19.93Q71.54 20.63 70.74 21.06Q69.94 21.49 68.91 21.49ZM70.22 19.21L70.22 19.21Q70.59 19.21 70.95 19.01Q71.31 18.82 71.55 18.54L71.55 18.54L71.55 13.49Q71.32 13.58 71.03 13.71Q70.73 13.84 70.39 14.05L70.39 14.05Q70.08 14.25 69.77 14.53Q69.47 14.81 69.23 15.20Q68.99 15.59 68.84 16.07Q68.70 16.56 68.70 17.16L68.70 17.16Q68.70 18.08 69.06 18.64Q69.42 19.21 70.22 19.21ZM79.80 21.32L76.17 5.18L79.13 5.18L80.68 13.76L81.07 17.19L81.16 17.19L81.61 13.76L83.16 5.18L86.02 5.18L82.34 21.32L79.80 21.32ZM89.79 21.32L89.79 3.69L86.57 3.69L86.57 1.30L96.04 1.30L96.04 3.69L92.82 3.69L92.82 21.32L89.79 21.32ZM101.79 21.49L101.79 21.49Q100.75 21.49 99.94 21.11Q99.14 20.72 98.59 19.90Q98.04 19.08 97.76 17.79Q97.48 16.51 97.48 14.71L97.48 14.71L97.48 11.66Q97.48 10.13 97.71 9.03Q97.93 7.93 98.30 7.19Q98.67 6.45 99.16 6.01Q99.64 5.58 100.16 5.35Q100.68 5.12 101.19 5.06Q101.70 4.99 102.13 4.99L102.13 4.99Q102.93 4.99 103.66 5.23Q104.40 5.47 104.96 6.05Q105.53 6.63 105.86 7.61Q106.20 8.58 106.20 10.03L106.20 10.03Q106.20 10.52 106.17 11.03Q106.14 11.53 106.09 12.02Q106.04 12.50 105.97 12.96Q105.89 13.42 105.81 13.80L105.81 13.80L100.45 13.80L100.45 15.45Q100.45 16.50 100.54 17.22Q100.62 17.94 100.81 18.38Q101.00 18.82 101.34 19.01Q101.67 19.21 102.18 19.21L102.18 19.21Q102.45 19.21 102.70 19.10Q102.96 18.98 103.15 18.73Q103.35 18.47 103.46 18.04Q103.58 17.61 103.58 16.98L103.58 16.98L103.58 16.48L106.05 16.48L106.05 17.10Q106.05 19.39 104.96 20.44Q103.86 21.49 101.79 21.49ZM100.45 11.81L103.43 11.81Q103.44 11.68 103.45 11.47Q103.46 11.25 103.47 11.02Q103.48 10.78 103.48 10.55Q103.48 10.32 103.48 10.16L103.48 10.16Q103.48 8.57 103.10 7.86Q102.73 7.16 101.99 7.16L101.99 7.16Q101.60 7.16 101.31 7.34Q101.02 7.52 100.83 7.95Q100.64 8.38 100.55 9.08Q100.45 9.79 100.45 10.83L100.45 10.83L100.45 11.81ZM107.47 21.32L110.82 13.13L107.64 5.18L110.67 5.18L112.39 10.46L112.42 10.46L114.25 5.18L117.08 5.18L114.02 12.84L117.46 21.32L114.42 21.32L112.43 15.75L112.34 15.75L110.32 21.32L107.47 21.32Z" transform="translate(0, 7.249)"></path></svg>